<?xml version="1.0" encoding="UTF-8" standalone="no"?>
<!DOCTYPE svg PUBLIC "-//W3C//DTD SVG 1.1//EN" "http://www.w3.org/Graphics/SVG/1.1/DTD/svg11.dtd">
<!-- Created with Vectornator (http://vectornator.io/) -->
<svg height="100%" stroke-miterlimit="10" style="fill-rule:nonzero;clip-rule:evenodd;stroke-linecap:round;stroke-linejoin:round;" version="1.1" viewBox="0 0 1023.5 767.5" width="100%" xml:space="preserve" xmlns="http://www.w3.org/2000/svg" xmlns:xlink="http://www.w3.org/1999/xlink">
<defs/>
<g id="Untitled">
<path d="M694.418 120.268C709.961 118.9 724.308 122.4 737.461 130.768C797.28 167.133 822.639 220.3 813.537 290.268C816.356 287.951 819.026 285.451 821.545 282.768C826.797 279.802 832.135 279.802 837.561 282.768C840.828 283.797 843.831 285.297 846.57 287.268C831.747 307.243 816.732 327.076 801.525 346.768C790.56 349.011 780.717 346.511 771.995 339.268C765.647 318.575 758.306 298.242 749.973 278.268C744.559 267.111 738.386 256.444 731.455 246.268C732.126 244.822 733.294 244.156 734.958 244.268C744.544 245.459 753.386 248.626 761.485 253.768C769.507 263.459 776.346 273.959 782.005 285.268C790.292 209.813 760.095 156.146 691.415 124.268C692.44 122.916 693.441 121.583 694.418 120.268Z" fill="#030303" fill-rule="evenodd" opacity="1" stroke="none"/>
<path d="M386.635 596.268C420.688 601.48 454.722 601.48 488.738 596.268C484.584 610.583 475.242 619.749 460.71 623.768C450.995 624.821 441.318 626.154 431.681 627.768C441.075 634.627 451.418 639.627 462.712 642.768C520.458 660.511 571.176 648.678 614.864 607.268C617.623 608.856 618.457 611.189 617.366 614.268C615.418 620.826 612.415 626.826 608.357 632.268C576.176 664.252 537.304 680.085 491.741 679.768C477.484 678.791 463.804 675.458 450.7 669.768C439.021 664.268 427.343 658.768 415.665 653.268C415.695 656.233 416.528 659.233 418.167 662.268C419.699 668.387 418.364 673.72 414.163 678.268C411.16 680.935 408.157 683.601 405.154 686.268C392.795 664.903 380.449 643.569 368.117 622.268C368.043 617.063 369.712 612.396 373.122 608.268C377.225 603.66 381.73 599.66 386.635 596.268Z" fill="#030303" fill-rule="evenodd" opacity="1" stroke="none"/>
<path d="M278.006 112.268C283.573 111.57 288.744 112.57 293.522 115.268C300.14 123.103 303.143 132.103 302.531 142.268C284.855 171.041 271.341 201.207 261.99 232.768C252.031 222.587 247.86 210.42 249.478 196.268C251.597 187.627 254.099 179.127 256.985 170.768C256.652 170.268 256.317 169.768 255.984 169.268C244.035 177.037 233.859 186.704 225.454 198.268C190.526 242.681 183.351 291.347 203.932 344.268C202.386 346.214 200.384 346.714 197.926 345.768C186.518 336.146 179.343 323.98 176.405 309.268C169.016 276.416 170.684 244.082 181.41 212.268C186.998 199.421 194.338 187.755 203.432 177.268C215.486 165.723 227.665 154.39 239.968 143.268C235.668 142.44 231.33 141.94 226.955 141.768C222.784 140.268 219.948 137.435 218.447 133.268C216.496 129.139 215.327 124.805 214.943 120.268C236.245 118.757 257.266 116.091 278.006 112.268Z" fill="#030303" fill-rule="evenodd" opacity="1" stroke="none"/>
</g>
</svg>
